<?xml version="1.0" encoding="utf-8"?>
<!-- Generator: Adobe Illustrator 23.0.3, SVG Export Plug-In . SVG Version: 6.00 Build 0)  -->
<svg version="1.1" id="BLOCS" xmlns="http://www.w3.org/2000/svg" xmlns:xlink="http://www.w3.org/1999/xlink" x="0px" y="0px"
	 viewBox="0 0 381.5 248" style="enable-background:new 0 0 381.5 248;" xml:space="preserve">
<style type="text/css">
	.st0{fill:#D6D6D6;}
	.st1{fill:#F01E1E;}
</style>
<path class="st0" d="M314.7,150h-248V98h248V150z M67.7,149h246V99h-246V149z"/>
<rect id="Rectangle_arrondi_724_copie_4" x="118.2" y="116.5" class="st1" width="71" height="3"/>
<rect id="Rectangle_arrondi_724_copie_5" x="118.2" y="128.5" class="st1" width="181" height="3"/>
<path class="st1" d="M106.2,134.1l-12.1-21.3c-0.1-0.2-0.3-0.2-0.5-0.1c-0.1,0-0.1,0.1-0.1,0.1l-12.2,21.3c-0.1,0.2,0,0.4,0.1,0.5
	c0.1,0,0.1,0,0.2,0h24.3c0.2,0,0.3-0.2,0.3-0.3C106.3,134.2,106.3,134.2,106.2,134.1z M94.7,131.2c0,0.2-0.1,0.3-0.3,0.3h-1.2
	c-0.2,0-0.3-0.1-0.3-0.3v-1.3c0-0.2,0.1-0.3,0.3-0.3h1.2c0.2,0,0.3,0.1,0.3,0.3V131.2z M94.7,127.6c0,0.2-0.1,0.3-0.3,0.3h-1.2
	c-0.2,0-0.3-0.1-0.3-0.3v-7.3c0-0.2,0.1-0.3,0.3-0.3h1.2c0.2,0,0.3,0.1,0.3,0.3V127.6z"/>
</svg>
