<?xml version="1.0" encoding="utf-8"?>
<!-- Generator: Adobe Illustrator 23.0.3, SVG Export Plug-In . SVG Version: 6.00 Build 0)  -->
<svg version="1.1" id="BTN" xmlns="http://www.w3.org/2000/svg" xmlns:xlink="http://www.w3.org/1999/xlink" x="0px" y="0px"
	 viewBox="0 0 381.5 248" style="enable-background:new 0 0 381.5 248;" xml:space="preserve">
<style type="text/css">
	.st0{fill:#F01E1E;}
	.st1{fill:#FFFFFF;}
	.st2{fill-rule:evenodd;clip-rule:evenodd;fill:#D6D6D6;}
	.st3{fill:#7B7B7B;}
</style>
<g id="BTN-2">
	<rect x="63" y="109" class="st0" width="74" height="30"/>
	<rect id="Rectangle_5_copie_6" x="80" y="123" class="st1" width="40" height="3"/>
</g>
<g id="BTN_02">
	<path id="Rectangle_5_copie_5" class="st2" d="M154,109h73v30h-73V109z"/>
	<rect id="Rectangle_5_copie_6-2" x="171" y="123" class="st3" width="40" height="3"/>
</g>
<g id="Rectangle_5_copie_5-2">
	<g>
		<path class="st3" d="M317,139h-73c-0.8,0-1.5-0.7-1.5-1.5v-27c0-0.8,0.7-1.5,1.5-1.5h73c0.8,0,1.5,0.7,1.5,1.5v27
			C318.5,138.3,317.8,139,317,139z M245.5,136h70v-24h-70V136z"/>
	</g>
</g>
<rect id="Rectangle_5_copie_6-3" x="261" y="123" class="st3" width="40" height="3"/>
</svg>
