<?xml version="1.0" encoding="utf-8"?>
<!-- Generator: Adobe Illustrator 23.0.3, SVG Export Plug-In . SVG Version: 6.00 Build 0)  -->
<svg version="1.1" id="FORMES" xmlns="http://www.w3.org/2000/svg" xmlns:xlink="http://www.w3.org/1999/xlink" x="0px" y="0px"
	 viewBox="0 0 381.5 248" style="enable-background:new 0 0 381.5 248;" xml:space="preserve">
<style type="text/css">
	.st0{fill:#7B7B7B;}
	.st1{fill:#A3A3A3;}
	.st2{fill:#D6D6D6;}
	.st3{fill:#F01E1E;}
</style>
<path class="st0" d="M127.7,65h-50c-3.3,0-6,2.7-6,6v35c0,3.3,2.7,6,6,6h50c3.3,0,6-2.7,6-6V71C133.7,67.7,131.1,65,127.7,65z"/>
<path class="st1" d="M215.7,65h-50c-3.3,0-6,2.7-6,6v35c0,3.3,2.7,6,6,6h50c3.3,0,6-2.7,6-6V71C221.7,67.7,219.1,65,215.7,65z"/>
<path class="st2" d="M303.7,65h-50c-3.3,0-6,2.7-6,6v35c0,3.3,2.7,6,6,6h50c3.3,0,6-2.7,6-6V71C309.7,67.7,307.1,65,303.7,65z"/>
<path id="Rectangle_arrondi_1_copie_4" class="st0" d="M77.7,136h50c3.3,0,6,2.7,6,6v35c0,3.3-2.7,6-6,6h-50c-3.3,0-6-2.7-6-6v-35
	C71.7,138.7,74.4,136,77.7,136z"/>
<path id="Rectangle_arrondi_1_copie_4-2" class="st3" d="M165.7,136h50c3.3,0,6,2.7,6,6v35c0,3.3-2.7,6-6,6h-50c-3.3,0-6-2.7-6-6
	v-35C159.7,138.7,162.4,136,165.7,136z"/>
<path id="Rectangle_arrondi_1_copie_4-3" class="st2" d="M253.7,136h50c3.3,0,6,2.7,6,6v35c0,3.3-2.7,6-6,6h-50c-3.3,0-6-2.7-6-6
	v-35C247.7,138.7,250.4,136,253.7,136z"/>
</svg>
