<?xml version="1.0" encoding="utf-8"?>
<!-- Generator: Adobe Illustrator 23.0.3, SVG Export Plug-In . SVG Version: 6.00 Build 0)  -->
<svg version="1.1" id="BLOCS" xmlns="http://www.w3.org/2000/svg" xmlns:xlink="http://www.w3.org/1999/xlink" x="0px" y="0px"
	 viewBox="0 0 381.5 248" style="enable-background:new 0 0 381.5 248;" xml:space="preserve">
<style type="text/css">
	.st0{fill:#D6D6D6;}
	.st1{fill:#A3A3A3;}
	.st2{fill:#F01E1E;}
</style>
<g id="Rectangle_3_copie_30">
	<path class="st0" d="M270.7,197.8h-160v-125h160V197.8z M111.7,196.8h158v-123h-158V196.8z"/>
</g>
<rect id="Rectangle_5_copie_3" x="110.7" y="50.3" class="st1" width="160" height="22.5"/>
<g id="Groupe_11">
	<g id="Groupe_10">
		<rect id="Rectangle_arrondi_724" x="125.2" y="85.3" class="st0" width="21" height="16"/>
		<rect id="Rectangle_arrondi_724_copie" x="162.2" y="85.3" class="st0" width="21" height="16"/>
		<rect id="Rectangle_arrondi_724_copie_2" x="198.2" y="85.3" class="st0" width="21" height="16"/>
		<rect id="Rectangle_arrondi_724_copie_3" x="235.2" y="85.3" class="st0" width="21" height="16"/>
	</g>
	<g id="Groupe_10_copie">
		<rect id="Rectangle_arrondi_724-2" x="125.2" y="113.3" class="st0" width="21" height="16"/>
		<rect id="Rectangle_arrondi_724_copie-2" x="162.2" y="113.3" class="st2" width="21" height="16"/>
		<rect id="Rectangle_arrondi_724_copie_2-2" x="198.2" y="113.3" class="st0" width="21" height="16"/>
		<rect id="Rectangle_arrondi_724_copie_3-2" x="235.2" y="113.3" class="st0" width="21" height="16"/>
	</g>
	<g id="Groupe_10_copie_2">
		<rect id="Rectangle_arrondi_724-3" x="125.2" y="141.3" class="st0" width="21" height="16"/>
		<rect id="Rectangle_arrondi_724_copie-3" x="162.2" y="141.3" class="st0" width="21" height="16"/>
		<rect id="Rectangle_arrondi_724_copie_2-3" x="198.2" y="141.3" class="st0" width="21" height="16"/>
		<rect id="Rectangle_arrondi_724_copie_3-3" x="235.2" y="141.3" class="st0" width="21" height="16"/>
	</g>
	<g id="Groupe_10_copie_3">
		<rect id="Rectangle_arrondi_724-4" x="125.2" y="169.3" class="st0" width="21" height="16"/>
		<rect id="Rectangle_arrondi_724_copie-4" x="162.2" y="169.3" class="st0" width="21" height="16"/>
		<rect id="Rectangle_arrondi_724_copie_2-4" x="198.2" y="169.3" class="st0" width="21" height="16"/>
		<rect id="Rectangle_arrondi_724_copie_3-4" x="235.2" y="169.3" class="st0" width="21" height="16"/>
	</g>
</g>
</svg>
