<?xml version="1.0" encoding="utf-8"?>
<!-- Generator: Adobe Illustrator 23.0.3, SVG Export Plug-In . SVG Version: 6.00 Build 0)  -->
<svg version="1.1" id="BLOCS" xmlns="http://www.w3.org/2000/svg" xmlns:xlink="http://www.w3.org/1999/xlink" x="0px" y="0px"
	 viewBox="0 0 381.5 248" style="enable-background:new 0 0 381.5 248;" xml:space="preserve">
<style type="text/css">
	.st0{fill:#D6D6D6;}
	.st1{fill:#F01E1E;}
	.st2{fill-rule:evenodd;clip-rule:evenodd;fill:#FFFFFF;}
</style>
<g id="Rectangle_765_copie_5">
	<path class="st0" d="M318.7,142h-256v-36h256V142z M63.7,141h254v-34h-254V141z"/>
</g>
<rect id="Rectangle_5_copie_3" x="281.2" y="106" class="st1" width="37.5" height="36"/>
<path id="Forme_539" class="st2" d="M308.2,130.7l-4.3-4.3c2.1-2.6,1.7-6.3-0.8-8.4s-6.3-1.7-8.4,0.8c-2.1,2.6-1.7,6.3,0.8,8.4
	c2.2,1.8,5.4,1.8,7.6,0l4.3,4.3L308.2,130.7z M295.8,126c-1.9-1.9-1.9-5,0-6.9s5-1.9,6.9,0s1.9,5,0,6.9c-0.9,0.9-2.2,1.4-3.5,1.4
	C297.9,127.4,296.7,126.9,295.8,126L295.8,126z"/>
<rect id="Rectangle_arrondi_724_copie_5" x="75.2" y="122.5" class="st0" width="181" height="3"/>
</svg>
