<?xml version="1.0" encoding="utf-8"?>
<!-- Generator: Adobe Illustrator 23.0.3, SVG Export Plug-In . SVG Version: 6.00 Build 0)  -->
<svg version="1.1" id="FORMES" xmlns="http://www.w3.org/2000/svg" xmlns:xlink="http://www.w3.org/1999/xlink" x="0px" y="0px"
	 viewBox="0 0 381.5 248" style="enable-background:new 0 0 381.5 248;" xml:space="preserve">
<style type="text/css">
	.st0{fill:#D6D6D6;}
	.st1{fill:#FFFFFF;}
	.st2{fill:#F01E1E;}
</style>
<path id="Rectangle_3_copie_2" class="st0" d="M32.7,21.5h316l0,0v199c0,3.3-2.7,6-6,6h-304c-3.3,0-6-2.7-6-6V21.5L32.7,21.5z"/>
<path id="Rectangle_3_copie_6" class="st1" d="M95.7,59.5h190c2.8,0,5,2.2,5,5v121c0,2.8-2.2,5-5,5h-190c-2.8,0-5-2.2-5-5v-121
	C90.7,61.7,93,59.5,95.7,59.5z"/>
<rect id="Rectangle_2_copie_6" x="110.7" y="83.5" class="st0" width="129" height="14"/>
<rect id="Rectangle_2_copie_5" x="110.7" y="109.5" class="st0" width="159" height="14"/>
<rect id="Rectangle_2_copie_4" x="110.7" y="135.5" class="st0" width="159" height="14"/>
<rect id="Rectangle_2_copie_7" x="222.7" y="162.5" class="st2" width="48" height="16"/>
</svg>
