<?xml version="1.0" encoding="utf-8"?>
<!-- Generator: Adobe Illustrator 23.0.3, SVG Export Plug-In . SVG Version: 6.00 Build 0)  -->
<svg version="1.1" id="BLOCS" xmlns="http://www.w3.org/2000/svg" xmlns:xlink="http://www.w3.org/1999/xlink" x="0px" y="0px"
	 viewBox="0 0 381.5 248" style="enable-background:new 0 0 381.5 248;" xml:space="preserve">
<style type="text/css">
	.st0{fill-rule:evenodd;clip-rule:evenodd;fill:#A3A3A3;}
	.st1{fill:#D6D6D6;}
	.st2{fill:#F01E1E;}
</style>
<path id="Forme_774_copie" class="st0" d="M64.9,124.3l11.8,11.5c0.2,0.2,0.5,0.2,0.6,0c0,0,0,0,0,0l1.3-1.3
	c0.1-0.1,0.1-0.2,0.1-0.3c0-0.1-0.1-0.2-0.1-0.3L68.5,124l10.1-9.9c0.2-0.2,0.2-0.5,0-0.7l-1.3-1.3c-0.1-0.1-0.2-0.1-0.3-0.1
	c-0.1,0-0.2,0.1-0.3,0.1l-11.8,11.5c-0.1,0.1-0.1,0.2-0.1,0.3C64.7,124.1,64.8,124.2,64.9,124.3z"/>
<rect id="Rectangle_arrondi_724" x="98.7" y="112" class="st1" width="31" height="24"/>
<rect id="Rectangle_arrondi_724_copie" x="149.7" y="112" class="st2" width="31" height="24"/>
<rect id="Rectangle_arrondi_724_copie_2" x="200.7" y="112" class="st1" width="31" height="24"/>
<rect id="Rectangle_arrondi_724_copie_3" x="251.7" y="112" class="st1" width="31" height="24"/>
<path id="Forme_774" class="st0" d="M316.6,123.6l-11.8-11.5c-0.2-0.2-0.5-0.2-0.6,0c0,0,0,0,0,0l-1.3,1.3c-0.1,0.1-0.1,0.2-0.1,0.3
	c0,0.1,0.1,0.2,0.1,0.3L313,124l-10.1,9.9c-0.2,0.2-0.2,0.5,0,0.7l1.3,1.3c0.1,0.1,0.2,0.1,0.3,0.1c0.1,0,0.2,0,0.3-0.1l11.8-11.5
	c0.1-0.1,0.1-0.2,0.1-0.3C316.8,123.9,316.7,123.7,316.6,123.6z"/>
</svg>
