<?xml version="1.0" encoding="utf-8"?>
<!-- Generator: Adobe Illustrator 23.0.3, SVG Export Plug-In . SVG Version: 6.00 Build 0)  -->
<svg version="1.1" id="FORMES" xmlns="http://www.w3.org/2000/svg" xmlns:xlink="http://www.w3.org/1999/xlink" x="0px" y="0px"
	 viewBox="0 0 381.5 248" style="enable-background:new 0 0 381.5 248;" xml:space="preserve">
<style type="text/css">
	.st0{fill-rule:evenodd;clip-rule:evenodd;fill:#D6D6D6;}
	.st1{fill-rule:evenodd;clip-rule:evenodd;fill:#F01E1E;}
</style>
<g id="LIGNE_1">
	<path id="Forme_48" class="st0" d="M103.6,75.9h-4.4v4.4h4.4L103.6,75.9L103.6,75.9z M103.6,83.4h-4.4v4.4h4.4L103.6,83.4
		L103.6,83.4z M103.6,91.1h-4.4v4.4h4.4L103.6,91.1L103.6,91.1z M87.5,99.5h3.3v-4.4h-3.3V99.5z M87.5,92.3h3.3v-4.4h-3.3V92.3
		L87.5,92.3z M111.1,75.9h-4.4v4.4h4.4L111.1,75.9L111.1,75.9z M106.7,87.9h4.4v-4.4h-4.4V87.9z M106.7,95.4h4.4V91h-4.4V95.4
		L106.7,95.4z M85.8,76l0.7,0.4l0.7-0.5c1-0.6,9.6-6.1,9.6-12c0-3.9-3.1-7-6.9-7c-2.1,1.3-4.8,1.3-7,0c-3.9,0-7,3.2-6.9,7
		C76.1,70.5,85.4,75.8,85.8,76L85.8,76z M83,60c0.9,0,1.8,0.3,2.5,1l0.9,0.8l0.9-0.8c0.7-0.6,1.6-0.9,2.5-1c2.2,0,4,1.8,4,4
		c0,3.2-5,7.2-7.5,8.9C83.8,71.3,79,67.6,79,64C79,61.8,80.8,60,83,60L83,60z M117.7,103V66.5h-18v3.2h14.9V103H95.8V74.9l-3.1,2.6
		v4.2h-10l0,0h-0.1V103h-9.9v3h52v-3L117.7,103L117.7,103z M85.7,84.9h7V103h-7V84.9z"/>
	<path id="Forme_49" class="st0" d="M212.4,102.2V74.4h-28.1l2.6-4.5h24.9l4.6,6.8l2.8,0l-6.1-9.1h-5.6v-7.8h1.3V57h-19.9v2.8h1.6
		v7.8h-4.9l-5.2,9h5.5v5.8l2.3,1.6v-7.3h22v25.5h-6.6v-6.2H195v6.2h-6.9v-7l-2.3,1.6v5.5h-11.1v2.8h48v-2.8L212.4,102.2L212.4,102.2
		z M193.4,59.8h11.3v7.8h-11.3V59.8z M197.8,98.7h3v3.5h-3V98.7z M195,80.8h-2.8v4.6h2.8V80.8z M200.7,80.8h-2.8v4.6h2.8V80.8z
		 M195.3,65.8h2.8v-4.6h-2.8V65.8z M200,61.3v4.6h2.8v-4.6H200z M206.4,80.8h-2.8v4.6h2.8V80.8z M192.2,92.9h2.8v-4.6h-2.8V92.9z
		 M197.9,92.9h2.8v-4.6h-2.8V92.9z M203.6,92.9h2.8v-4.6h-2.8V92.9z M182.4,94.8c1.6,0,3.1-0.7,4.2-1.8l-1.2-1.3
		c-0.8,0.8-1.8,1.2-2.9,1.2c-1.3,0-2.5-0.7-3.1-1.8h3.7v-1h-4c-0.1-0.2-0.1-0.5-0.1-0.7c0-0.2,0-0.5,0.1-0.7h4v-1h-3.6
		c0.6-1.1,1.8-1.7,3.1-1.7c1.1,0,2.1,0.5,2.9,1.4l1.2-1.5c-1.1-1.1-2.5-1.7-4.1-1.7c-2.3-0.1-4.5,1.3-5.3,3.5h-1.6v1h1.4
		c0,0.2,0,0.5,0,0.8c0,0.2,0,0.5,0,0.7h-1.4v1h1.6C177.9,93.4,180.1,94.9,182.4,94.8L182.4,94.8z"/>
	<path id="Forme_50" class="st0" d="M296.6,78.9l6.7-12.2h-14.9l-0.3,0.9l-1.3,3.9h2.7l0.7-2.1h8.5l-6.6,12.2h5.9l-10.2,11.6
		l2.4-8.2h-5.1l3.2-9.9h-2.7l-4.1,12.6h5.2L282,104l20-22.8l1.8-2.2L296.6,78.9L296.6,78.9z M282.7,95.3c-1.5-1-2.8-2.1-3.9-3.4
		c-5.7-6.8-6.4-16.4-1.6-23.9l0.3,2.9l2.3-0.3l-0.8-7l-7,1.2l0.4,2.3l3-0.5c-5.4,8.4-4.6,19.3,1.8,26.9c1.4,1.6,3.1,3,4.9,4.2
		L282.7,95.3z M289.7,98l-1.8,2c1.6,0.4,3.2,0.6,4.9,0.6c4.6,0,9.1-1.6,12.7-4.4l-1.4-1.9C300,97.6,294.8,98.9,289.7,98z
		 M310.1,91.1c5.4-8.4,4.7-19.3-1.8-26.9c-7.2-8.4-19.7-9.6-28.4-2.8l1.4,1.9c7.3-5.8,17.9-5.1,24.4,1.6h0.5l-0.2,0.3
		c0.2,0.2,0.4,0.4,0.5,0.6c5.7,6.8,6.4,16.6,1.5,24l-0.3-3l-2.3,0.3l0.8,7l7-1.2l-0.4-2.3L310.1,91.1z"/>
</g>
<g id="LIGNE_2">
	<path id="Forme_51" class="st0" d="M122.1,186.5v-28h0l0,0h-9.5V142h0l0,0H94.3v2.5l0,0v2.9l2.6,2.5v-5.4h13v14h-8.3v2.5h17.9v25.5
		h-15.3v-22.8h-2.6v22.8h-4.8v-23.7c0-0.2,0-0.5,0-0.7c0.2-8.3-6.4-15.3-14.7-15.5s-15.3,6.4-15.5,14.7c-0.2,8.3,6.4,15.3,14.7,15.5
		c0.1,0,0.2,0,0.4,0c5,0,9.6-2.4,12.5-6.5v16.2H71.1v2.5h59.7v-2.5H122.1z M94.3,163.1c-0.6,6.7-6.5,11.8-13.2,11.2
		c-6.7-0.6-11.8-6.5-11.2-13.2c0.6-6.7,6.5-11.8,13.2-11.2c6,0.5,10.7,5.2,11.2,11.2V163.1z M111,163.6h-3.6v3.5h3.6V163.6z
		 M116.8,163.6h-3.6v3.5h3.6V163.6z M107.4,172.4h3.6v-3.5h-3.6V172.4z M113.2,172.4h3.6v-3.5h-3.6V172.4z M107.4,177.7h3.6v-3.5
		h-3.6V177.7z M113.2,177.7h3.6v-3.5h-3.6V177.7z M82.8,167.5c-1.9,0-3.7-1-4.7-2.6h5.6v-1.5h-6.1c-0.2-0.7-0.2-1.4,0-2.1h6.1v-1.5
		h-5.6c1-1.6,2.8-2.6,4.7-2.6c1.7,0.1,3.3,0.8,4.4,2l1.8-2.2c-1.7-1.6-3.9-2.5-6.2-2.5c-3.5-0.1-6.7,2-8.1,5.2h-2.5v1.5h2.1
		c0,0.4-0.1,0.7-0.1,1.1c0,0.3,0,0.7,0.1,1h-2.1v1.5h2.5c1.2,3.3,4.4,5.5,8,5.4c2.4,0,4.6-1,6.3-2.7l-1.8-2
		C86,166.8,84.4,167.4,82.8,167.5L82.8,167.5z"/>
	<path id="Forme_52" class="st1" d="M220.8,178.7c-0.5-0.4-1-0.7-1.5-1.1c-0.5-0.3-0.9-0.6-1.3-1c-0.4-0.4-0.4-0.5,0.7-2
		c0.7-0.9,1.3-1.9,1.8-3c2.6-5.2,2.6-10.4-0.2-14.8c-1.9-2.8-4.7-4.9-7.9-5.8v2.5c2.4,0.8,4.5,2.4,5.9,4.6c2.3,3.6,2.3,8.1,0.1,12.5
		c-0.5,0.9-1,1.8-1.7,2.7c-1,1.5-2.1,3-0.5,4.8c0.4,0.3,0.7,0.6,1.1,0.9c1,0.6,1.9,1.4,2.7,2.3h-19.9c1.1-0.7,2.3-1.1,3.6-1.2
		c0.6,0,1.2-0.4,1.4-0.9c0.3-0.9-0.2-1.5-0.9-2.3c-1.3-1.5-2.3-2.8-1.5-4.6c0.3-0.6,2.4-2.3,5.5-3.9c3.1-1.7,2.6-5.4,2.6-5.5
		c-0.1-0.4-0.4-0.8-0.8-0.9c-0.4-0.2-0.9-0.1-1.2,0.2c-0.6,0.5-1.2,1-1.9,1.3c-3.4-1.1-4.7,1-4.8,1.1c0,0,0,0,0,0.1
		c-0.1,0-0.3-0.1-0.5-0.2c-0.8-0.4-0.8-1.6-0.7-2.2l4.1-3.3c0.2-0.2,0.4-0.5,0.4-0.7l0.2-1.1c0.4-0.4,0.9-0.8,1.3-1.1
		c0.5-0.3,1-0.5,1.6-0.5c0.3,0,0.6-0.1,0.9-0.3c0.2-0.2,0.4-0.5,0.3-0.8V154l0,0v-3.6h-2.4l0,2.8c-0.6,0.2-1.2,0.4-1.7,0.7
		c-0.7,0.5-1.4,1.1-2,1.6c-0.2,0.2-0.3,0.4-0.4,0.7l-0.2,1.1l-4.1,3.3c-0.2,0.2-0.3,0.4-0.4,0.6c-0.4,1.5-0.3,4.2,2.1,5.2
		c1.2,0.5,2.6,0.9,3.4,0c0.3-0.3,0.4-0.7,0.4-1.1c0.6-0.2,1.2-0.1,1.8,0.1c0.5,0.2,1.1,0.1,1.6-0.1c-0.2,0.3-0.5,0.6-0.9,0.8
		c-1.3,0.7-5.7,3.2-6.5,5c-1.3,3,0.4,5.4,1.6,6.7c-4.9,1-5.4,4-5.4,4.2c0,0.1,0,0.1,0,0.2v6.7H218v-2.3h-18.8v-3.1h21.2v5.4h2.3
		l0-6.4C222.8,181,222.1,179.6,220.8,178.7z M178.6,186.7v2.3h16.6l0-1.2v-6.6h-1.9c-0.1-0.4-0.1-0.7-0.3-1.1
		c-0.5-1.6-1.5-3.1-2.9-4.2v-12.1h3v-5.4h-1.4v-3.1h-10.9l-1.8-6H190L189,153h2.5l1.3-4.5c0.1-0.3,0.4-1.5,0.4-1.5h-7.6V146h2.1
		v-2.3h-2.1V142h-2.4v1.6h-2.1v2.3h2.1v1.1h-7.3c0,0,0.4,1.1,0.5,1.5l2,6.8h-1.1v3.1h-1.4v5.4h2.9V176c-1.4,1.1-2.4,2.5-2.9,4.2
		c-0.1,0.3-0.2,0.7-0.3,1.1h-1.8v7.8h2.5v-5.5l16.5,0v3.2L178.6,186.7L178.6,186.7z M179.7,157.6h9.7v0.8h-9.7V157.6L179.7,157.6z
		 M178.3,161.5v-0.8h12.5v0.8L178.3,161.5L178.3,161.5z M187.8,163.8v11.6h-6.6v-11.6L187.8,163.8L187.8,163.8z M178.1,181.1
		c0-0.1,0.1-0.2,0.1-0.3c0.4-1.2,1.2-2.3,2.2-3.1h8.3c1,0.8,1.7,1.9,2.1,3.1c0,0.1,0.1,0.2,0.1,0.3H178.1L178.1,181.1z"/>
	<path id="Forme_53" class="st0" d="M312.5,177c0,0.1-0.1,0.1-0.1,0.1l-13.8,7.7c-0.4,0.2-0.8,0.4-1.3,0.5c-1.7,0.5-3.5,0.5-5.3,0.1
		l-4.4-0.9c-0.9-0.2-2.3-0.3-4.3-0.5c-2.1-0.1-4.2,0.5-5.9,1.7l-0.3,0.2v-8c0.2-0.1,0.4-0.2,0.6-0.4c1.5-0.9,3.1-1.7,4.7-2.4
		c0.6-0.2,1.2-0.3,1.8-0.3c1.4-0.1,2.9,0.1,4.2,0.6c2.1,0.8,4.4,1.4,6.6,1.7h4.5c0.5,0,1,0.4,1,0.9v0c0,0.3-0.1,0.5-0.3,0.7
		c-0.2,0.2-0.4,0.3-0.7,0.3h-8.7c-0.6,0-1.1,0.5-1.2,1.1c0,0.6,0.5,1.1,1.1,1.2c0,0,0,0,0.1,0h8.7c0.9,0,1.7-0.3,2.3-0.9
		c0.4-0.4,0.7-0.9,0.8-1.5l6.2-2.6c0.6-0.3,1.2-0.4,1.8-0.4c0.7-0.1,1.4,0.2,1.7,0.9C312.5,176.8,312.5,176.9,312.5,177z M273,176.6
		h1.8v12.1H273V176.6z M288.5,173.2c-1.5-0.4-3-0.6-4.5-0.6c-0.8,0-1.6,0.2-2.3,0.4c-1.6,0.6-3.2,1.4-4.6,2.3
		c-0.1-0.6-0.6-1-1.1-0.9h-4c-0.6,0-1.1,0.5-1.1,1.1c0,0,0,0,0,0v14.4c0,0.6,0.5,1.1,1.1,1.1c0,0,0,0,0,0h4c0.6,0,1.1-0.5,1.1-1.1
		c0,0,0,0,0,0v-1.1l1.7-1.3c1.3-0.9,2.8-1.4,4.4-1.3c1.3,0.1,2.6,0.2,3.9,0.5l4.4,0.9c2.1,0.5,4.3,0.4,6.3-0.1
		c0.6-0.1,1.2-0.4,1.8-0.7l13.8-7.7c0.6-0.3,1-0.8,1.2-1.5c0.3-0.6,0.2-1.4-0.1-2c-0.7-1.3-2.1-2.1-3.6-2c-0.9,0-1.9,0.2-2.7,0.6
		l-5.8,2.4c-0.4-0.8-1.2-1.4-2.1-1.6l-2.3-0.1h-3c-1.5-0.2-2.9-0.5-4.3-1 M301.9,168.9h-13.2v-13.2h13.3v2.7h-10.6v7.8h7.7v-4.8h2.7
		L301.9,168.9L301.9,168.9z M294.4,146.7V142h2.5v4.7H294.4z M304.3,149.2l3.3-3.3l1.8,1.8l-3.3,3.3L304.3,149.2z M309.9,156h4.7
		v2.5h-4.7V156z M286.8,149.2l-3.3-3.3l-1.8,1.8l3.3,3.3L286.8,149.2z M281.1,156h-4.7v2.5h4.7V156z"/>
</g>
</svg>
