<?xml version="1.0" encoding="utf-8"?>
<!-- Generator: Adobe Illustrator 23.0.3, SVG Export Plug-In . SVG Version: 6.00 Build 0)  -->
<svg version="1.1" id="BLOCS" xmlns="http://www.w3.org/2000/svg" xmlns:xlink="http://www.w3.org/1999/xlink" x="0px" y="0px"
	 viewBox="0 0 381.5 248" style="enable-background:new 0 0 381.5 248;" xml:space="preserve">
<style type="text/css">
	.st0{fill:#F01E1E;}
	.st1{fill:#D6D6D6;}
	.st2{fill:#7B7B7B;}
	.st3{fill:none;}
</style>
<rect id="Rectangle_3_copie_26" x="148.2" y="175.3" class="st0" width="90" height="13"/>
<g id="Groupe_8">
	<rect id="Rectangle_3_copie_28" x="128.2" y="101.3" class="st1" width="125" height="13"/>
	<rect id="Rectangle_3_copie_29" x="128.2" y="81.3" class="st1" width="125" height="13"/>
	<rect id="Rectangle_3_copie_27" x="203.2" y="124.3" class="st2" width="50" height="13"/>
</g>
<g>
	<polygon class="st3" points="264.7,60.8 116.7,60.8 116.7,156.8 179,156.8 180.3,156.8 181.5,158 191.3,168.3 200.1,157.8 
		200.1,157.8 201,156.8 202.3,156.8 264.7,156.8 	"/>
	<polygon class="st1" points="115.7,59.8 115.7,157.8 180,157.8 179,156.8 116.7,156.8 116.7,60.8 264.7,60.8 264.7,156.8 
		202.3,156.8 201.4,157.8 265.7,157.8 265.7,59.8 	"/>
	<polygon class="st1" points="200.1,157.8 200.1,157.8 191.3,168.3 181.5,158 180.3,156.8 179,156.8 191.4,169.9 202.3,156.8 
		201,156.8 	"/>
</g>
</svg>
