<?xml version="1.0" encoding="utf-8"?>
<!-- Generator: Adobe Illustrator 23.0.3, SVG Export Plug-In . SVG Version: 6.00 Build 0)  -->
<svg version="1.1" id="BLOCS" xmlns="http://www.w3.org/2000/svg" xmlns:xlink="http://www.w3.org/1999/xlink" x="0px" y="0px"
	 viewBox="0 0 381.5 248" style="enable-background:new 0 0 381.5 248;" xml:space="preserve">
<style type="text/css">
	.st0{fill:#D6D6D6;}
	.st1{fill:#F01E1E;}
	.st2{fill:#A3A3A3;}
	.st3{fill:#FFFFFF;}
</style>
<g id="Rectangle_3_copie_15">
	<path class="st0" d="M312.7,200h-244V48h244V200z M69.7,199h242V49h-242V199z"/>
</g>
<rect x="69.7" y="79.5" class="st1" width="242" height="30"/>
<rect id="Rectangle_711_copie" x="69.7" y="139.5" class="st0" width="242" height="30"/>
<g id="Groupe_6">
	<rect id="Rectangle_3_copie_19" x="86.2" y="60.5" class="st2" width="44" height="8"/>
	<rect id="Rectangle_3_copie_20" x="175.2" y="60.5" class="st2" width="34" height="8"/>
	<rect id="Rectangle_3_copie_21" x="259.2" y="60.5" class="st2" width="24" height="8"/>
</g>
<g id="Groupe_5">
	<rect id="Rectangle_3_copie_14" x="95.2" y="92.5" class="st3" width="27" height="5"/>
	<rect id="Rectangle_3_copie_22" x="89.2" y="152.5" class="st2" width="39" height="5"/>
	<rect id="Rectangle_3_copie_24" x="86.2" y="122.5" class="st2" width="44" height="5"/>
	<rect id="Rectangle_3_copie_23" x="86.2" y="182.5" class="st2" width="44" height="5"/>
</g>
<g id="Groupe_5_copie">
	<rect id="Rectangle_3_copie_14-2" x="170.2" y="92.5" class="st3" width="44" height="5"/>
	<rect id="Rectangle_3_copie_22-2" x="179.2" y="152.5" class="st2" width="27" height="5"/>
	<rect id="Rectangle_3_copie_24-2" x="173.2" y="122.5" class="st2" width="39" height="5"/>
	<rect id="Rectangle_3_copie_23-2" x="175.2" y="182.5" class="st2" width="34" height="5"/>
</g>
<g id="Groupe_5_copie_2">
	<rect id="Rectangle_3_copie_14-3" x="253.2" y="92.5" class="st3" width="35" height="5"/>
	<rect id="Rectangle_3_copie_22-3" x="253.2" y="152.5" class="st2" width="35" height="5"/>
	<rect id="Rectangle_3_copie_24-3" x="253.2" y="122.5" class="st2" width="35" height="5"/>
	<rect id="Rectangle_3_copie_23-3" x="253.2" y="182.5" class="st2" width="35" height="5"/>
</g>
</svg>
